<?xml version="1.0" encoding="UTF-8" standalone="no"?>
<!-- Created with Inkscape (http://www.inkscape.org/) -->

<svg
   xmlns:dc="http://purl.org/dc/elements/1.1/"
   xmlns:cc="http://creativecommons.org/ns#"
   xmlns:rdf="http://www.w3.org/1999/02/22-rdf-syntax-ns#"
   xmlns:svg="http://www.w3.org/2000/svg"
   xmlns="http://www.w3.org/2000/svg"
   xmlns:sodipodi="http://sodipodi.sourceforge.net/DTD/sodipodi-0.dtd"
   xmlns:inkscape="http://www.inkscape.org/namespaces/inkscape"
   width="210mm"
   height="297mm"
   id="svg3026"
   version="1.1"
   inkscape:version="0.48.4 r9939"
   sodipodi:docname="vaca-habla.svg">
  <defs
     id="defs3028" />
  <sodipodi:namedview
     id="base"
     pagecolor="#ffffff"
     bordercolor="#666666"
     borderopacity="1.0"
     inkscape:pageopacity="0.0"
     inkscape:pageshadow="2"
     inkscape:zoom="1.4"
     inkscape:cx="457.36187"
     inkscape:cy="559.4938"
     inkscape:document-units="px"
     inkscape:current-layer="layer1"
     showgrid="false"
     inkscape:window-width="1366"
     inkscape:window-height="745"
     inkscape:window-x="-8"
     inkscape:window-y="-8"
     inkscape:window-maximized="1" />
  <metadata
     id="metadata3031">
    <rdf:RDF>
      <cc:Work
         rdf:about="">
        <dc:format>image/svg+xml</dc:format>
        <dc:type
           rdf:resource="http://purl.org/dc/dcmitype/StillImage" />
        <dc:title></dc:title>
      </cc:Work>
    </rdf:RDF>
  </metadata>
  <g
     inkscape:label="Capa 1"
     inkscape:groupmode="layer"
     id="layer1">
    <rect
       style="fill:#ff0000;fill-opacity:0.47596154;stroke:#000000;stroke-width:0.97105485000000002;stroke-linecap:butt;stroke-linejoin:round;stroke-miterlimit:4;stroke-opacity:1;stroke-dasharray:none;stroke-dashoffset:0"
       id="rect4601"
       width="482.86923"
       height="298.02393"
       x="-685.76501"
       y="308.79642"
       inkscape:export-filename="C:\Users\Sebasti치n\Dropbox\Personal\Dise침os\vaca-pregunta-1.png"
       inkscape:export-xdpi="71.877808"
       inkscape:export-ydpi="71.877808"
       transform="scale(-1,1)" />
    <path
       style="fill:none;stroke:#000000;stroke-width:5;stroke-linecap:butt;stroke-linejoin:miter;stroke-miterlimit:4;stroke-opacity:1;stroke-dasharray:none"
       d="m -148.82332,339.37762 c 54.2015,133.2799 128.1669,-42.15871 184.9852,114.57489 l 9.8349,-11.81765 c -56.8183,-156.7336 -130.7838,18.70501 -184.9852,-114.57489 z"
       id="path3910-8"
       inkscape:connector-curvature="0"
       sodipodi:nodetypes="ccccc" />
    <path
       style="fill:#ffffff;fill-opacity:1;fill-rule:evenodd;stroke:#000000;stroke-width:5;stroke-linecap:round;stroke-linejoin:round;stroke-miterlimit:4;stroke-opacity:1;stroke-dasharray:none;stroke-dashoffset:0"
       d="m 252.21391,513.78569 c 16.61781,-7.42917 45.66222,-1.91479 51.97752,15.15743 8.61436,23.28729 25.17456,43.98828 30.37643,84.33803 2.32744,18.05345 -5.68249,27.40549 -22.30031,34.83465 -16.6178,7.42915 -28.82132,3.13694 -41.97751,-9.44315 -12.50643,-11.95879 -26.44142,-49.39267 -38.94785,-71.48089 -8.96868,-15.84003 4.25391,-45.97692 20.87172,-53.40607 z"
       id="rect3794-4"
       inkscape:connector-curvature="0"
       sodipodi:nodetypes="sssssss" />
    <path
       style="fill:#ffffff;fill-opacity:1;fill-rule:evenodd;stroke:#000000;stroke-width:5;stroke-linecap:round;stroke-linejoin:round;stroke-miterlimit:4;stroke-opacity:1;stroke-dasharray:none;stroke-dashoffset:0"
       d="m 29.26038,605.95081 c 0,20.18697 21.4815,36.55176 47.9803,36.55176 26.49883,0 47.98036,-16.36479 47.98036,-36.55176 0,-20.18698 -21.48153,-36.55176 -47.98036,-36.55176 -26.4988,0 -47.9803,16.36478 -47.9803,36.55176 z"
       id="path3814"
       inkscape:connector-curvature="0" />
    <path
       style="fill:#ffffff;fill-opacity:1;fill-rule:evenodd;stroke:#000000;stroke-width:5;stroke-miterlimit:4;stroke-opacity:1;stroke-dasharray:none"
       d="m -43.46612,482.37933 c 0,78.8937 87.3011,142.84969 194.99255,142.84969 107.6914,0 194.99253,-63.95599 194.99253,-142.84969 0,-78.89369 -87.30113,-142.84968 -194.99253,-142.84968 -107.69145,0 -194.99255,63.95599 -194.99255,142.84968 z"
       id="path2985"
       inkscape:connector-curvature="0" />
    <path
       style="fill:#000000;fill-opacity:1;stroke:#000000;stroke-width:1px;stroke-linecap:butt;stroke-linejoin:miter;stroke-opacity:1"
       d="m 331.94078,532.29182 c -157.03129,169.19054 -334.531,54.14381 -372.2412,-27.7792 32.501,88.52579 86.2594,99.59788 135.3604,114.14724 28.63628,5.5167 185.93358,21.9367 236.8808,-86.36804 z"
       id="path4062"
       inkscape:connector-curvature="0"
       sodipodi:nodetypes="cccc" />
    <path
       sodipodi:type="arc"
       style="fill:#000000;fill-opacity:1;fill-rule:evenodd;stroke:#000000;stroke-width:3;stroke-linecap:round;stroke-linejoin:round;stroke-miterlimit:4;stroke-opacity:1;stroke-dasharray:none;stroke-dashoffset:0"
       id="path3990-2-6"
       sodipodi:cx="479.82245"
       sodipodi:cy="332.12341"
       sodipodi:rx="64.649765"
       sodipodi:ry="54.548237"
       d="m 544.47221,332.12341 a 64.649765,54.548237 0 1 1 -129.29953,0 64.649765,54.548237 0 1 1 129.29953,0 z"
       transform="matrix(-1.0151343,0,0,1.0271962,529.61633,169.92269)" />
    <path
       style="fill:#ffffff;fill-opacity:1;fill-rule:evenodd;stroke:#000000;stroke-width:5;stroke-linecap:round;stroke-linejoin:round;stroke-miterlimit:4;stroke-opacity:1;stroke-dasharray:none;stroke-dashoffset:0"
       d="m 36.83888,506.92859 c -16.6178,-7.42916 -51.9706,8.41751 -59.1203,25.15745 -7.1581,16.75936 -20.9079,39.13127 -24.6622,72.90944 -2.0107,18.09145 7.1111,28.83407 23.7289,36.26323 16.6178,7.42916 19.6037,-4.54535 37.6918,-6.58602 9.6493,-1.08862 29.2986,-34.20525 38.9478,-65.76658 5.3221,-17.40749 0.032,-54.54836 -16.586,-61.97752 z"
       id="rect3794-7"
       inkscape:connector-curvature="0"
       sodipodi:nodetypes="sssssss" />
    <path
       style="fill:#000000;fill-opacity:1;fill-rule:evenodd;stroke:#000000;stroke-width:3;stroke-linecap:round;stroke-linejoin:round;stroke-miterlimit:4;stroke-opacity:1;stroke-dashoffset:0"
       d="m -162.04502,343.80793 c 0,14.2016 12.4721,25.71428 27.8571,25.71428 15.3851,0 29.1463,-11.57131 27.8572,-25.71428 -2.8572,-31.34448 -38.1864,-17.14286 -30.7143,-55.71429 -18.2422,15.71428 -25,41.51267 -25,55.71429 z"
       id="path3930"
       inkscape:connector-curvature="0"
       sodipodi:nodetypes="ssscs" />
    <path
       style="fill:#000000;fill-opacity:1;fill-rule:evenodd;stroke:#000000;stroke-width:3;stroke-linecap:round;stroke-linejoin:round;stroke-miterlimit:4;stroke-opacity:1;stroke-dashoffset:0"
       d="m 337.50792,625.09971 c 2.88674,11.94309 -2.08999,24.0926 -11.7726,31.74973 -3.99574,3.15989 -13.3242,-2.44338 -18.87537,-17.9893 3.06839,13.54791 -3.04003,26.07354 -6.77051,25.79433 -13.97976,-1.04634 -26.01455,-10.12659 -29.23357,-23.44443 -4.07802,-16.87167 7.53667,-34.15529 25.94212,-38.60404 18.40546,-4.44874 36.63192,5.62204 40.70993,22.49371 z"
       id="path3954-7"
       inkscape:connector-curvature="0"
       sodipodi:nodetypes="sscssss" />
    <path
       style="fill:#000000;fill-opacity:1;fill-rule:evenodd;stroke:#000000;stroke-width:3;stroke-linecap:round;stroke-linejoin:round;stroke-miterlimit:4;stroke-opacity:1;stroke-dashoffset:0"
       d="m -50.45382,617.96773 c -2.8868,11.94309 2.0899,24.0926 11.7726,31.74973 3.9957,3.15989 13.3242,-2.44338 18.8753,-17.9893 -3.0684,13.54791 3.0401,26.07354 6.7705,25.79433 13.9798,-1.04634 26.0146,-10.12659 29.2336,-23.44443 4.078,-16.87167 -7.5367,-34.15529 -25.9421,-38.60404 -18.4055,-4.44874 -36.6319,5.62204 -40.7099,22.49371 z"
       id="path3954-71"
       inkscape:connector-curvature="0"
       sodipodi:nodetypes="sscssss" />
    <path
       sodipodi:type="arc"
       style="fill:#000000;fill-opacity:1;fill-rule:evenodd;stroke:#000000;stroke-width:3;stroke-linecap:round;stroke-linejoin:round;stroke-miterlimit:4;stroke-opacity:1;stroke-dasharray:none;stroke-dashoffset:0"
       id="path3990"
       sodipodi:cx="479.82245"
       sodipodi:cy="332.12341"
       sodipodi:rx="64.649765"
       sodipodi:ry="54.548237"
       d="m 544.47221,332.12341 a 64.649765,54.548237 0 1 1 -129.29953,0 64.649765,54.548237 0 1 1 129.29953,0 z"
       transform="matrix(-1,0,0,1,592.05507,71.373947)" />
    <path
       sodipodi:type="arc"
       style="fill:#000000;fill-opacity:1;fill-rule:evenodd;stroke:#000000;stroke-width:3;stroke-linecap:round;stroke-linejoin:round;stroke-miterlimit:4;stroke-opacity:1;stroke-dasharray:none;stroke-dashoffset:0"
       id="path3990-2"
       sodipodi:cx="479.82245"
       sodipodi:cy="332.12341"
       sodipodi:rx="64.649765"
       sodipodi:ry="54.548237"
       d="m 544.47221,332.12341 a 64.649765,54.548237 0 1 1 -129.29953,0 64.649765,54.548237 0 1 1 129.29953,0 z"
       transform="matrix(-0.7566266,0,0,0.6745204,500.83743,288.81492)" />
    <path
       style="fill:#ffffff;fill-opacity:1;fill-rule:evenodd;stroke:#000000;stroke-width:5;stroke-linecap:round;stroke-linejoin:round;stroke-miterlimit:4;stroke-opacity:1;stroke-dasharray:none;stroke-dashoffset:0"
       d="m 203.69612,527.35711 c -16.61781,-7.42916 -42.41152,1.85294 -54.83466,15.15743 -13.41786,14.36978 -20.64399,32.53666 -30.37643,84.33803 -3.36114,17.88985 8.53963,27.40549 25.15745,34.83465 16.61781,7.42916 32.69571,8.13242 43.40608,-6.58601 14.59209,-20.05278 37.06246,-62.47553 37.51928,-80.05231 0.45683,-17.57678 -4.25391,-40.26263 -20.87172,-47.69179 z"
       id="rect3794"
       inkscape:connector-curvature="0"
       sodipodi:nodetypes="ssssszs" />
    <path
       style="fill:#000000;fill-opacity:1;fill-rule:evenodd;stroke:#000000;stroke-width:3;stroke-linecap:round;stroke-linejoin:round;stroke-miterlimit:4;stroke-opacity:1;stroke-dashoffset:0"
       d="m 117.19859,639.92854 c -2.88674,11.94309 2.08999,24.0926 11.7726,31.74973 3.99574,3.15989 13.3242,-2.44338 18.87537,-17.9893 -3.06839,13.54791 3.04003,26.07349 6.77051,25.79429 13.97976,-1.0463 26.01455,-10.12655 29.23357,-23.44439 4.07802,-16.87167 -7.53667,-34.15529 -25.94212,-38.60404 -18.40546,-4.44874 -36.63192,5.62204 -40.70993,22.49371 z"
       id="path3954"
       inkscape:connector-curvature="0"
       sodipodi:nodetypes="sscssss" />
    <path
       style="fill:#000000;fill-opacity:1;stroke:#000000;stroke-width:1px;stroke-linecap:butt;stroke-linejoin:miter;stroke-opacity:1"
       d="m 219.30878,546.93903 c 2.78762,23.68493 7.93469,63.34677 -55.55839,114.14723 8.82311,7.39339 19.39106,8.47853 45.45686,-46.46701 15.16278,-20.3484 16.44621,-43.29917 10.10153,-67.68022 z"
       id="path4046"
       inkscape:connector-curvature="0"
       sodipodi:nodetypes="cccc" />
    <path
       style="fill:#000000;fill-opacity:1;stroke:#000000;stroke-width:1px;stroke-linecap:butt;stroke-linejoin:miter;stroke-opacity:1"
       d="m 285.47377,619.16494 c -18.29339,-5.72827 -22.74986,-15.54411 -24.24366,-18.68783 l -10.10153,4.54569 19.69798,33.33503 z"
       id="path4048"
       inkscape:connector-curvature="0"
       sodipodi:nodetypes="ccccc" />
    <path
       style="fill:#ffffff;fill-opacity:1;fill-rule:evenodd;stroke:#000000;stroke-width:6;stroke-linecap:round;stroke-linejoin:round;stroke-miterlimit:4;stroke-opacity:1;stroke-dasharray:none;stroke-dashoffset:0"
       d="m 397.65285,389.8654 c -6.62812,10.27718 4.12385,29.00812 24.01518,41.83673 19.89132,12.8286 41.38957,14.89694 48.01768,4.61975 6.62811,-10.27718 -4.12384,-29.00813 -24.01516,-41.83673 -19.89133,-12.82861 -41.38959,-14.89694 -48.0177,-4.61975 z"
       id="path3854"
       inkscape:connector-curvature="0" />
    <path
       style="fill:#ffffff;fill-opacity:1;fill-rule:evenodd;stroke:#000000;stroke-width:5.15722752;stroke-miterlimit:4;stroke-opacity:1;stroke-dasharray:none"
       d="m 335.44172,364.47557 c 39.06047,0.27574 63.85348,12.67196 76.87147,31.52312 8.57356,12.41524 7.30879,23.67629 -6.24038,32.69434 23.5061,19.014 63.67168,46.88697 64.04921,66.7942 1.41928,74.83851 -82.48484,84.5521 -152.87362,71.67993 -55.16479,-10.08812 -85.79868,-28.972 -90.79515,-88.89486 -0.3569,-23.50844 5.26054,-29.83994 20.40677,-51.31939 -1.17056,-3.62484 -4.271,-18.0612 -2.50912,-21.78508 12.97693,-27.42773 32.10307,-37.86124 78.48589,-40.39108 4.34839,-0.23717 8.56419,-0.3297 12.60493,-0.30118 z"
       id="path2987"
       inkscape:connector-curvature="0"
       sodipodi:nodetypes="sscssccsss" />
    <path
       sodipodi:type="arc"
       style="fill:#ffffff;fill-opacity:1;fill-rule:evenodd;stroke:#000000;stroke-width:1.70276213;stroke-linecap:butt;stroke-linejoin:miter;stroke-miterlimit:4;stroke-opacity:1;stroke-dasharray:none;stroke-dashoffset:0"
       id="path3063"
       sodipodi:cx="85.357887"
       sodipodi:cy="281.5592"
       sodipodi:rx="11.364216"
       sodipodi:ry="6.0609155"
       d="m 96.722103,281.5592 a 11.364216,6.0609155 0 1 1 -22.728432,0 11.364216,6.0609155 0 1 1 22.728432,0 z"
       transform="matrix(-2.0635207,0.32938885,0.33496815,1.7394224,488.4467,34.730707)" />
    <path
       style="fill:#ffffff;fill-opacity:1;fill-rule:evenodd;stroke:#000000;stroke-width:4.22781372;stroke-linecap:round;stroke-linejoin:round;stroke-miterlimit:4;stroke-opacity:1;stroke-dasharray:none;stroke-dashoffset:0"
       d="m 335.1832,523.91215 c 4.70112,29.69401 52.56524,53.93512 84.58172,19.97302 37.94123,25.88749 77.4918,-13.74766 72.79068,-43.44166 -4.70111,-29.694 -47.97767,-54.76632 -78.90607,-28.12365 -50.8116,-16.60117 -83.16744,21.8983 -78.46633,51.59229 z"
       id="path3757"
       inkscape:connector-curvature="0"
       sodipodi:nodetypes="scscs" />
    <path
       style="fill:#000000;fill-opacity:1;fill-rule:evenodd;stroke:#000000;stroke-width:2.26187301;stroke-linecap:round;stroke-linejoin:round;stroke-miterlimit:4;stroke-opacity:1;stroke-dasharray:none;stroke-dashoffset:0"
       d="m 433.85635,502.9622 c 0.73477,4.64107 8.90803,7.20372 18.2555,5.72384 9.34748,-1.47988 16.32946,-6.44189 15.59469,-11.08297 -0.73477,-4.64106 -8.90804,-7.20372 -18.25552,-5.72384 -9.34747,1.47988 -16.32944,6.4419 -15.59467,11.08297 z"
       id="path3774"
       inkscape:connector-curvature="0" />
    <path
       style="fill:#000000;fill-opacity:1;fill-rule:evenodd;stroke:#000000;stroke-width:2.26187301;stroke-linecap:round;stroke-linejoin:round;stroke-miterlimit:4;stroke-opacity:1;stroke-dasharray:none;stroke-dashoffset:0"
       d="m 367.07361,511.38503 c 0.73477,4.64108 8.90805,7.20373 18.25551,5.72386 9.34747,-1.47989 16.32945,-6.4419 15.59468,-11.08298 -0.73477,-4.64107 -8.90804,-7.20372 -18.25552,-5.72384 -9.34746,1.47988 -16.32944,6.44189 -15.59467,11.08296 z"
       id="path3774-1"
       inkscape:connector-curvature="0" />
    <path
       style="fill:#000000;fill-opacity:1;fill-rule:evenodd;stroke:#000000;stroke-width:2.59949279;stroke-linecap:round;stroke-linejoin:round;stroke-miterlimit:4;stroke-opacity:1;stroke-dasharray:none;stroke-dashoffset:0"
       d="m 353.08969,420.96574 c 0,13.99196 10.82084,25.33469 24.16901,25.33469 13.34817,0 24.16899,-11.34273 24.16899,-25.33469 0,-13.99195 -10.82082,-25.33467 -24.16899,-25.33467 -13.34817,0 -24.16901,11.34272 -24.16901,25.33467 z"
       id="path3834"
       inkscape:connector-curvature="0" />
    <path
       style="fill:#000000;fill-opacity:1;fill-rule:evenodd;stroke:#000000;stroke-width:3;stroke-linecap:round;stroke-linejoin:round;stroke-miterlimit:4;stroke-opacity:1;stroke-dasharray:none;stroke-dashoffset:0"
       d="m 261.10095,426.36437 c 0,16.18061 12.46263,29.29759 27.83604,29.29759 15.37342,0 27.83604,-13.11698 27.83604,-29.29759 0,-16.18061 -12.46262,-29.29758 -27.83604,-29.29758 -15.37341,0 -27.83604,13.11697 -27.83604,29.29758 z"
       id="path3834-0"
       inkscape:connector-curvature="0" />
    <path
       style="fill:#ffffff;fill-opacity:1;fill-rule:evenodd;stroke:#000000;stroke-width:6;stroke-linecap:round;stroke-linejoin:round;stroke-miterlimit:4;stroke-opacity:1;stroke-dasharray:none;stroke-dashoffset:0"
       d="m 255.40001,380.57968 c 6.62811,10.27719 -4.12385,29.00813 -24.01518,41.83674 -19.89133,12.8286 -41.38958,14.89694 -48.01769,4.61975 -6.62811,-10.27718 4.12385,-29.00813 24.01517,-41.83673 19.89133,-12.82861 41.38959,-14.89694 48.0177,-4.61976 z"
       id="path3854-9"
       inkscape:connector-curvature="0" />
    <path
       sodipodi:type="arc"
       style="fill:#ffffff;fill-opacity:1;fill-rule:evenodd;stroke:#000000;stroke-width:3;stroke-linecap:round;stroke-linejoin:round;stroke-miterlimit:4;stroke-opacity:1;stroke-dasharray:none;stroke-dashoffset:0"
       id="path3888"
       sodipodi:cx="86.428574"
       sodipodi:cy="263.07648"
       sodipodi:rx="10.714286"
       sodipodi:ry="10.714286"
       d="m 97.142859,263.07648 a 10.714286,10.714286 0 1 1 -21.428571,0 10.714286,10.714286 0 1 1 21.428571,0 z"
       transform="matrix(-0.9018639,0,0,0.9311399,465.75397,169.07377)" />
    <path
       sodipodi:type="arc"
       style="fill:#ffffff;fill-opacity:1;fill-rule:evenodd;stroke:#000000;stroke-width:3;stroke-linecap:round;stroke-linejoin:round;stroke-miterlimit:4;stroke-opacity:1;stroke-dasharray:none;stroke-dashoffset:0"
       id="path3888-4"
       sodipodi:cx="86.428574"
       sodipodi:cy="263.07648"
       sodipodi:rx="10.714286"
       sodipodi:ry="10.714286"
       d="m 97.142859,263.07648 a 10.714286,10.714286 0 1 1 -21.428571,0 10.714286,10.714286 0 1 1 21.428571,0 z"
       transform="matrix(-1,0,0,1,385.24071,158.16001)" />
    <path
       style="fill:#ffffff;fill-opacity:1;stroke:#000000;stroke-width:5;stroke-linecap:butt;stroke-linejoin:miter;stroke-miterlimit:4;stroke-opacity:1;stroke-dasharray:none"
       d="m 415.19056,339.13895 c 8.01432,21.72301 3.9224,37.10254 -7.15675,48.82085 -18.85087,10.41379 -36.79059,-8.95135 -33.8161,-17.31882 15.9706,-8.55905 28.18015,-13.95909 40.97285,-31.50203 z"
       id="path3934"
       inkscape:connector-curvature="0"
       sodipodi:nodetypes="cccc" />
    <path
       style="fill:#ffffff;fill-opacity:1;stroke:#000000;stroke-width:5;stroke-linecap:butt;stroke-linejoin:miter;stroke-miterlimit:4;stroke-opacity:1;stroke-dasharray:none"
       d="m 254.39988,336.11096 c -8.01432,21.72301 -3.9224,37.10254 7.15675,48.82085 18.85087,10.41379 36.79059,-8.95135 33.8161,-17.31882 -15.9706,-8.55905 -28.18015,-13.95909 -40.97285,-31.50203 z"
       id="path3934-8"
       inkscape:connector-curvature="0"
       sodipodi:nodetypes="cccc" />
    <path
       style="fill:#000000;fill-opacity:1;stroke:#000000;stroke-width:1px;stroke-linecap:butt;stroke-linejoin:miter;stroke-opacity:1"
       d="m 246.92825,425.35434 c -51.6205,99.33088 62.14552,140.23641 100.61787,146.96105 -47.7959,-1.42557 -81.37924,-16.89026 -107.78174,-45.57941 -8.13849,-7.45118 -24.77556,-80.83353 7.16387,-101.38164 z"
       id="path4050"
       inkscape:connector-curvature="0"
       sodipodi:nodetypes="cccc" />
    <path
       style="fill:#000000;fill-opacity:1;stroke:#000000;stroke-width:1px;stroke-linecap:butt;stroke-linejoin:miter;stroke-opacity:1"
       d="m 255.92682,384.80954 c -7.46723,35.70555 -88.27431,56.54099 -65.19291,19.21829 -19.08124,22.11603 2.31901,33.01749 26.55457,25.7335 23.23266,-10.57381 36.47627,-31.26253 38.63834,-44.95179 z"
       id="path4052"
       inkscape:connector-curvature="0"
       sodipodi:nodetypes="cccc" />
    <path
       style="fill:#000000;fill-opacity:1;stroke:#000000;stroke-width:1px;stroke-linecap:butt;stroke-linejoin:miter;stroke-opacity:1"
       d="m 419.06645,543.90857 c -28.9116,20.62402 -59.98194,8.48143 -68.85484,0.69265 -8.8729,-7.78877 -14.23189,-16.54908 -13.97767,-35.29037 -0.0902,9.30541 -5.81726,23.80267 25.75889,46.21447 16.73444,6.56045 34.35034,9.10531 57.07362,-11.61675 z"
       id="path4054"
       inkscape:connector-curvature="0"
       sodipodi:nodetypes="czccc" />
    <path
       style="fill:#000000;fill-opacity:1;stroke:#000000;stroke-width:1px;stroke-linecap:butt;stroke-linejoin:miter;stroke-opacity:1"
       d="m 489.52459,492.64332 c 5.49411,27.88463 -17.57407,68.51215 -69.14775,49.70233 6.75143,16.86698 40.74929,14.86692 63.59191,-10.30637 7.16222,-14.93482 11.72738,-27.12789 5.55584,-39.39596 z"
       id="path4056"
       inkscape:connector-curvature="0"
       sodipodi:nodetypes="cccc" />
    <path
       style="fill:#000000;fill-opacity:1;stroke:#000000;stroke-width:1px;stroke-linecap:butt;stroke-linejoin:miter;stroke-opacity:1"
       d="m 255.63357,336.66506 c -3.55662,24.95403 1.59182,39.57213 13.21428,49.82143 l -9.10714,-3.21429 c -8.8641,-13.02761 -9.52354,-28.34335 -4.10714,-46.60714 z"
       id="path4058"
       inkscape:connector-curvature="0"
       sodipodi:nodetypes="cccc" />
    <path
       style="fill:#000000;fill-opacity:1;stroke:#000000;stroke-width:1px;stroke-linecap:butt;stroke-linejoin:miter;stroke-opacity:1"
       d="m 414.02642,338.62935 c 5.66425,19.51055 7.49649,38.11838 -6.25,49.10714 l -11.96429,2.67857 c 13.1498,-6.50222 25.33475,-27.63466 18.21429,-51.78571 z"
       id="path4060"
       inkscape:connector-curvature="0"
       sodipodi:nodetypes="cccc" />
    <path
       style="fill:#ffffff;fill-opacity:1;fill-rule:evenodd;stroke:#000000;stroke-width:5;stroke-linecap:butt;stroke-linejoin:round;stroke-miterlimit:4;stroke-opacity:1;stroke-dashoffset:0;stroke-dasharray:none"
       d="m 584.09584,324.59589 c 55.23951,0 86.65625,38.92632 86.65625,62.125 0,23.19867 -23.33552,62.125 -86.65625,62.125 -26.47767,25.82205 -55.12895,39.57265 -81.79916,45.73829 37.25986,-16.20223 45.90277,-42.57229 49.86496,-48.11182 -43.76365,-21.27146 -50.75,-44.58398 -50.75,-63.96875 0,-19.38477 30.47516,-57.90772 82.6842,-57.90772 z"
       id="path4081"
       inkscape:connector-curvature="0"
       sodipodi:nodetypes="ssccczs" />
    <path
       style="fill:#000000;fill-opacity:1;stroke:#000000;stroke-width:1px;stroke-linecap:butt;stroke-linejoin:miter;stroke-opacity:1"
       d="m 426.82627,555.52505 c -6.1504,-7.53068 -11.03424,-6.71965 -15.15919,-5.73591 l 7.78445,-5.94076 10.6524,4.71163 z"
       id="path4599"
       inkscape:connector-curvature="0"
       sodipodi:nodetypes="ccccc" />
    <g
       style="font-size:70.83132935px;font-style:normal;font-variant:normal;font-weight:normal;font-stretch:normal;line-height:125%;letter-spacing:0px;word-spacing:0px;fill:#000000;fill-opacity:1;stroke:#000000;stroke-width:5;stroke-miterlimit:4;font-family:Arial;-inkscape-font-specification:Arial"
       id="text3251"
       transform="translate(2.3648229,-3.2037724)">
      <path
         d="m 578.40656,401.31531 -7.68838,-44.67509 c -0.12193,-0.73401 -0.18289,-1.53683 -0.18287,-2.40846 -2e-5,-7.09688 4.54583,-10.64536 13.63753,-10.64545 9.09166,9e-5 13.6375,3.52782 13.63754,10.5832 -4e-5,0.85607 -0.061,1.25423 -0.18287,1.1945 l -7.70394,45.9513 z m 5.76628,6.48221 c 8.07485,2e-5 12.11228,3.99595 12.11232,11.98781 -4e-5,7.99187 -4.03747,11.9878 -12.11232,11.9878 -8.07489,0 -12.11232,-3.99593 -12.11231,-11.9878 -10e-6,-7.99186 4.03742,-11.98779 12.11231,-11.98781 z"
         style="font-size:127.4963913px;font-weight:bold;fill:#ff0000;stroke:#000000;font-family:Britannic Bold;-inkscape-font-specification:Britannic Bold"
         id="path4024"
         inkscape:connector-curvature="0" />
    </g>
    <rect
       style="fill:none;stroke:#000000;stroke-width:15;stroke-linecap:butt;stroke-linejoin:round;stroke-miterlimit:4;stroke-opacity:1;stroke-dasharray:none;stroke-dashoffset:0"
       id="rect4601-1"
       width="482.86923"
       height="298.02393"
       x="-686.97278"
       y="308.37036"
       inkscape:export-filename="C:\Users\Sebasti치n\Dropbox\Personal\Dise침os\vaca-habla-2.png"
       inkscape:export-xdpi="71.877808"
       inkscape:export-ydpi="71.877808"
       transform="scale(-1,1)" />
    <g
       style="font-size:40px;font-style:normal;font-variant:normal;font-weight:normal;font-stretch:normal;line-height:125%;letter-spacing:0px;word-spacing:0px;fill:#ff0000;fill-opacity:1;stroke:#000000;stroke-width:2.95613742;stroke-miterlimit:4;stroke-opacity:1;stroke-dasharray:none;font-family:Impact;-inkscape-font-specification:Impact"
       id="text4044"
       transform="matrix(1.3485369,0,0,1.4725666,58.267171,-16.483363)">
      <path
         d="m 572.3158,387.63036 c 0.11864,-2.47997 0.22338,-4.12865 0.31421,-4.94605 0.0908,-0.81736 0.22228,-1.55235 0.39441,-2.20496 0.17211,-0.65256 0.38817,-1.23264 0.64819,-1.74023 0.26,-0.50754 0.62731,-1.07151 1.10193,-1.69189 0.4746,-0.62034 1.06419,-1.30625 1.7688,-2.05774 0.70457,-0.75144 1.66624,-1.74753 2.88501,-2.98829 l 1.13598,-1.17333 c 0.34715,-0.32517 0.67015,-0.676 0.969,-1.0525 0.29881,-0.37643 0.51524,-0.68441 0.64929,-0.92395 0.13401,-0.23946 0.22923,-0.45772 0.28564,-0.65478 0.0564,-0.19699 0.0846,-0.38778 0.0846,-0.57239 -2e-5,-0.88473 -0.53615,-1.58053 -1.6084,-2.0874 -1.07228,-0.5068 -2.70265,-0.76022 -4.89111,-0.76025 -3.15382,3e-5 -7.15724,0.68924 -12.01026,2.06762 l 1.08106,-6.20508 c 0.11132,-0.61812 0.24939,-1.39851 0.41418,-2.34118 0.16479,-0.94258 0.36951,-2.26497 0.61414,-3.96717 5.49022,-0.79829 10.3535,-1.19746 14.58984,-1.1975 2.79197,4e-5 5.36863,0.2216 7.72998,0.66467 2.3613,0.44316 4.43186,1.20964 6.21167,2.29944 1.77975,1.08989 3.14938,2.39689 4.10889,3.92102 0.95944,1.52421 1.43917,3.163 1.43921,4.91638 -4e-5,0.7017 -0.0751,1.44034 -0.22522,2.21594 -0.15018,0.77567 -0.35746,1.50003 -0.62183,2.1731 -0.26444,0.67313 -0.65445,1.42276 -1.17004,2.2489 -0.51566,0.8262 -1.11991,1.65713 -1.81275,2.4928 -0.6929,0.83572 -1.24881,1.4634 -1.66772,1.88305 -0.41898,0.41971 -1.22354,1.19571 -2.4137,2.32801 -1.19021,1.13234 -2.09219,2.01674 -2.70593,2.65319 -0.61379,0.6365 -1.09353,1.20889 -1.43921,1.71717 -0.34573,0.50832 -0.61965,1.06422 -0.82177,1.66772 -0.20218,0.60353 -0.4241,1.71974 -0.66578,3.34863 -2.76857,-0.0688 -5.08376,-0.10325 -6.94555,-0.10327 -1.80617,2e-5 -4.28175,0.0235 -7.42676,0.0703 z m -1.58423,20.2884 0.34277,-4.89551 c 0.0476,-2.70301 0.43859,-5.39237 0.58228,-8.09253 2.94872,0.0454 5.58617,0.0681 7.91235,0.0681 2.41698,10e-6 5.01927,-0.0227 7.80689,-0.0681 -0.2388,3.13917 -0.39224,5.62428 -0.46033,7.45532 -0.0681,1.83106 -0.16226,3.6753 -0.28235,5.53272 -3.58742,-0.0454 -6.1487,-0.0681 -7.68384,-0.0681 -1.63185,0 -4.3711,0.0227 -8.21777,0.0681 z"
         style="font-size:72px;font-weight:bold;fill:#ff0000;stroke:#000000;stroke-width:2.95613742;stroke-miterlimit:4;stroke-opacity:1;stroke-dasharray:none;font-family:Eras Bold ITC;-inkscape-font-specification:Eras Bold ITC"
         id="path4049"
         inkscape:connector-curvature="0"
         sodipodi:nodetypes="ccsssscccccccccccccccccccccssscccccccccscscsc" />
    </g>
  </g>
</svg>
